<svg width="350" height="350" viewBox="0 0 350 350" fill="none" xmlns="http://www.w3.org/2000/svg">
<rect width="350" height="350" rx="175" fill="white"/>
<path fill-rule="evenodd" clip-rule="evenodd" d="M157.388 51.3223C167.151 41.5592 182.981 41.5592 192.744 51.3223L236.744 95.3229L174.872 157.195L113.194 95.5165L157.388 51.3223ZM157.195 174.872L95.5165 113.194L51.3223 157.388C41.5592 167.151 41.5592 182.981 51.3223 192.744L95.3229 236.744L157.195 174.872ZM113.001 254.422L174.872 192.55L236.938 254.615L192.744 298.81C182.981 308.573 167.151 308.573 157.388 298.81L113.001 254.422ZM192.55 174.872L254.422 113.001L298.81 157.388C308.573 167.151 308.573 182.981 298.81 192.744L254.616 236.938L192.55 174.872Z" fill="#F43F5E"/>
</svg>
